<?xml version="1.0" encoding="UTF-8"?><svg id="Layer_1" xmlns="http://www.w3.org/2000/svg" width="60" height="60" viewBox="0 0 60 60"><path d="M31.4268147,5.5029986l.0013883.0013858c.2599164.2276201.5170284.4732906.7661811.732499l.0471869.0471869c.1259621.1297641.2560815.2640763.3862035.4250733.1606746.1721186.3119357.3678307.4410247.5378529.1388248.1814636.2717157.3771757.3987083.5638626l.1210942.1915548c.1079117.1779814.2193055.3618968.3209635.5558678.2782892.5107773.5260561,1.0465337.7377222,1.5944423.2335185.5732431.4240455,1.1856783.5656036,1.8200015l.0874451.3948708.1440125.8449233.0402581.3501356c.0145683.1273479.0298143.2584977.036776.393485.0919577,1.1673081.0808361,2.4456192-.0350704,4.0209807-.059339.6509523-.1155511,1.2658393-.1991587,1.8543613-.0801609.6002832-.1717606,1.1540901-.2734213,1.6475276-.1037544.5412995-.2248486,1.0160115-.3185473,1.3674973l-.1603219.5631874-.157195.4798997c-.0551462.1814636-.1179673.3383033-.1686364.4646208l-.0110835.0270756c-.0243067.0596588-.0465144.1138101-.0621131.1568397l-.1551342.3889724.410505.1880726.1849458-.3869115c.0138931-.0305223.0302025-.0634963.0478976-.0992418l.0336491-.0676536c.0628212-.1287336.141241-.2883449.2182751-.4833818l.1974176-.4805748.2037068-.5677c.1197111-.3580948.2751624-.8397.4184642-1.389705.1342767-.4930822.2651067-1.0555589.3889724-1.6714764.1172922-.5749842.2234628-1.211688.3157758-1.8939088.2002247-1.6176804.2772588-2.9452749.2432543-4.1764346-.001066-.1623828-.0111216-.3272172-.0215326-.4896l-.0992418-1.1301768-.0759681-.5364316c-.0895415-.5822683-.2220771-1.3442591-.4556311-2.0715704-.0756483-.269264-.1793645-.5229293-.2799948-.7678892l-.0891861-.2161787c-.032616-.0624658-.0634963-.1249317-.0940541-.1880726-.1148405-.2318129-.2338738-.4712298-.3768204-.6804797-.2991112-.4958537-.6686829-.9628906-1.1294662-1.428222-.3542929-.3580948-.7474226-.6821852-1.1645366-.9597993-.1412055-.1047848-.2845429-.1856209-.3979976-.2494725l-.1356624-.0784199c-.1603219-.1003078-.3178697-.174215-.4701993-.2456705-.2643961-.1332462-.4906304-.2172447-.6415717-.2731015l-.4219464-.1509413-.1884279.3553233.4413826.3799472c.1065259.0905719.23629.2016104.3841045.3355673Z" fill="#c07a51" stroke-width="0"/><path d="M38.0346555.9129322l.2557262.2942432c.1644792.1970978.3900384.4667172.6252979.7838787.2664925.3417855.5329849.7463921.7811072,1.1318824.2748098.4354842.5392031.9098409.7855843,1.4088214.2838322.5940295.5125183,1.132593.6992052,1.6471722.2345489.6304857.423652,1.2346064.5784308,1.8463665.1471394.5902275.2557262,1.2377332.3317298,1.9789021.0596943.6353536.0919577,1.3227621.0957596,2.0424339.0010304.662749-.0287812,1.3289802-.0891861,1.9813538-.0596588.6925962-.1724356,1.3435485-.2640407,1.8335038-.0909272.4927268-.2168893,1.0042147-.3959367,1.6086907-.1710526.5444264-.3265038.9764284-.4774479,1.3230819-.0773894.1925852-.1596468.3660896-.239097.5343707-.0749377.1679613-.1457181.3119383-.2185949.4441541-.1256068.2522795-.2397722.447281-.3369531.6106942l-.2123412.3609019.371988.2470563.2647514-.3730184c.0777092-.1086223.2224324-.3112632.3816883-.5704716.0919577-.1398197.1828522-.2911164.2699746-.4490221.0999169-.1765957.1974176-.3508107.2879895-.5367869.1825296-.3462981.3792721-.7859396.6013491-1.3456449.4292305-1.1097102.7519352-2.3436059.9327237-3.5674815.1023686-.6839263.1738242-1.3813549.2130518-2.0736313.0378064-.7772697.0444154-1.4809875.0197915-2.151376-.0222077-.7089055-.0940541-1.4407294-.2134072-2.1749695-.1145207-.7161897-.2945985-1.4327346-.5215407-2.0722455-.2356177-.6513076-.5257036-1.2640982-.8612354-1.8213873-.3216742-.5412995-.6679723-1.0323208-1.0295493-1.4587443-.3272172-.3924546-.6769975-.756128-1.0385389-1.0795077-.1068812-.0985667-.2141178-.1870422-.3178722-.2731015l-.581913-.447281c-.2807054-.1904888-.4784756-.3157403-.6207498-.393485l-.357775-.2022856-.2435741.3296334.2682336.2984005c.0680089.0725215.1533575.1693471.2553709.2848982Z" fill="#c07a51" stroke-width="0"/><path d="M45.7653889,9.6669259c-.0163093.4927268-.0649147,1.0378638-.1481698,1.6649029-.0728768.5131935-.1679584,1.0406354-.2900859,1.6107516-.1193886.5374976-.2557617,1.0552036-.3740844,1.4976167-.1599665.5798521-.2769034.9781695-.3920964,1.3342035-.1925852.6280695-.3855258,1.1804906-.526059,1.583676l-.0256543.0728768c-.0409659.1172922-.0787752.225879-.1121045.3244457l-.3237351.9077444.4066675.1745348.417792-.8727096.0003553-.0006751c.3084888-.658272.5878085-1.2911738.8529152-1.9338116.1558093-.3688611.3206082-.7894218.517706-1.3230819.1905244-.5101021.3594806-1.0524321.4996912-1.5170884.172086-.5950955.3098419-1.1398772.4215911-1.6658978.1336016-.6509878.2255622-1.2304491.2807054-1.7703984l.0201468-.1904888c.0235935-.2328434.0482174-.4740013.0551462-.7432653.0156342-.2866038.0315912-.5832987.023629-.8733847l-.0028071-.4563062-.0440601-.5916133c-.0076395-.0982114-.0152789-.1957121-.0291365-.3001416l-.1537129-.8584966c-.0308776-.1360178-.0600496-.2598835-.1009829-.3976423-.0874451-.307781-.1682811-.5548373-.2540177-.775884-.1582284-.4386111-.3546127-.8907245-.5829463-1.3428734-.2008969-.4077335-.4101497-.7689552-.5888418-1.0694521-.1717633-.2841876-.3414302-.548939-.5034931-.7866147-.1596083-.2345844-.3130043-.4490221-.4663618-.6513076l-.101658-.1256068-.3487498.1745348.0353902.1481698c.0558952.2185949.1343122.4947877.2206913.7765591.0735875.2449954.1686364.5416548.2776141.8778973l.3567119,1.1176695c.1071982.3459428.2470534.8074722.3785586,1.3060974.0596943.2314576.1172922.4715496.16935.7016214l.2001863,1.0038594.1433374.9112266.0416468.4115355c.0343213.2744517.0447323.5541267.0513413.8185583.0107663.203316.0062537.414307.0020609.6186889l-.0044771.2095697Z" fill="#c07a51" stroke-width="0"/><path d="M46.5440444,16.6471101l-.0898968.1412055.3588055.2571119.1054955-.1287336s.1596142-.1963872.430261-.5496141c.3122936-.4021904.6905353-.9428149,1.0652948-1.5236619.2054124-.3258315.425396-.6807995.6395109-1.067711.2366453-.4084086.4510829-.8612326.6332572-1.2536872.4361593-.9521599.7803966-1.9275579,1.0229402-2.8995092.1134578-.4531793.2175675-.9760731.3088115-1.5559252.081902-.5798166.1193886-1.0871472.114876-1.5524431-.01702-.5864256-.0642069-1.0482748-.1481698-1.4501099-.0284584-.1693116-.065948-.3310192-.1027209-.4899553l-.040581-.1752455c-.0371313-.1377233-.0794858-.2720355-.119744-.4000585l-.0631409-.2047373c-.1145207-.3376282-.2487974-.6613633-.4243626-1.0229403l-.2141178-.3973225c-.0454458-.0804807-.0933434-.154388-.1433019-.2317774-.0222077-.0326187-.0430297-.0638516-.0624658-.096115-.1037544-.167606-.2046987-.2956645-.2848627-.3966119l-.2470563-.3098775-.3435266.1880726.075293.3112632c.0114414.0492478.0273954.108267.0461565.1741795.0246239.0909272.0534406.1991942.0829325.3310192.0468316.1794027.0936632.3959368.1433019.6249426l.0277507.1277032c.01702.0982114.0357455.1974532.0558568.2991112l.0590192.3317298c.015954.118678.03571.2397722.0562121.3542929l.0128272.1075564c.0461565.3639932.0860593.6950479.1092974,1.0562696.0256899.3476839.043385.748453.0579532,1.2994884.0128272.4399968.0138931.9094855.0024192,1.3931871-.0163123.4396415-.0614029.8952371-.1422745,1.4317042-.1512611.9084196-.4066675,1.8678636-.7376867,2.7745776-.291827.7897416-.641252,1.5954727-1.0104684,2.3297128-.3556786.7043929-.6946926,1.2762502-.8768668,1.5833562-.2220771.3757899-.3567061.5895524-.3570288.5895524Z" fill="#c07a51" stroke-width="0"/><path d="M52.1074123,12.3530279c.2487974-.2911164.5680198-.6866978.8993943-1.1138675.2210466-.2876342.4087639-.5416548.5732431-.7762038.0933434-.1329264.1991942-.2911519.2970503-.4483469l.0992418-.1557737c.0645267-.1003078.1294087-.2023211.1897782-.3098775.3855258-.6402215.7408491-1.3605685,1.0552423-2.1399346.1588974-.3799472.3008136-.7706607.430933-1.1360397.1381142-.389008.2495112-.775884.3310547-1.1523845.0745824-.3778863.1235104-.7529656.1460734-1.1169943l.0201468-.5142239c.0013858-.1079117-.0024517-.2141178-.0062537-.3195778-.0024517-.0454814-.0034822-.0898968-.0045094-.1343122l-.0007106-.0256543c-.002064-.2328434-.0277539-.4514383-.0523778-.6603328-.0076395-.0638516-.0149236-.125287-.0222077-.1957121-.0454814-.2713604-.0815467-.4732906-.1214495-.6443788-.0888308-.3518411-.1565199-.5465228-.1603219-.5548373l-.0426712-.1252515-.3653821.0201113-.0357455.1190333c-.0003553.0017056-.0579501.2040266-.1245763.5517105-.0416439.1891031-.0870897.4195302-.1381142.683571-.0412886.2155036-.0881202.4521489-.1408857.7071644l-.3893277,1.9175022-.1984805,1.0788326c-.0707835.3757899-.1689593.7467119-.2640439,1.0898832-.1932959.6523736-.4559509,1.3532843-.7821376,2.0851082-.0416439.1013382-.0909272.2022856-.1422714.3043344l-.0312329.0641714c-.0180504.036776-.0360653.0739072-.0520549.108267-.0766788.1592914-.1481698.2987558-.2262343.4496972-.1301163.2498633-.2769034.5163558-.4493418.815467-.1970978.3410748-.3827543.6433128-.5326296.8855012-.0749732.1193886-.1408857.2273003-.1978085.3216742l-.3647038.5968366.3463336.2626905.4569813-.5378529Z" fill="#c07a51" stroke-width="0"/><path d="M55.7605622,10.9064001l.0440956.092313v.0000711h0v-.0000711l-.0583086-.085704c-.065948.0315527-.1325711.0634963-.2067982.0940185-.3580948.1693471-.6364196.3237351-.8775775.4864731l-.0621105.0437403c-.1099726.0763234-.2116661.1467841-.3081364.2252039l-.0659125.0534406c-.0895415.0725215-.1721186.1412055-.2418686.2078286-.1880726.167606-.3438464.3216742-.4389309.4348091l-.2318129.2775786.243965.3161311.4014443-.210991c.119744-.0617552.2526349-.128023.417114-.1957121.208187-.0919577.4663618-.1790474.7102913-.2595281.2425437-.0732321.5302134-.1561646.8213298-.2155036.1467841-.0232381.2789999-.0430297.4153729-.0458012l.0690393-.0034822c.1162618-.0044771.2397722-.0100556.361577-.0273954.2314221-.0357455.4431237-.1054955.6381251-.1700222l.6374145-.2418686c.1113939-.0450905.1925852-.0870897.2189502-.1044295l.0995971-.0530853.0541513-.2713604-.0496387-.0520549c-.0131825-.0201113-.092313-.1072366-.2248486-.2064784-.0773894-.0638161-.1679581-.1141298-.2789999-.1696669-.11068-.0572426-.2370006-.1058153-.3757899-.1440125-.2248486-.063141-.5746288-.124221-.9670834-.0537604-.1748546.0374511-.344557.0943739-.5006861.1675705-.081902.0347151-.1634487.0732321-.243965.1117492Z" fill="#c07a51" stroke-width="0"/><path d="M56.4521279,13.8995726c-.274807.0111216-.5444264.0361008-.8428269.064882l-.1585808.0152789c-.6395109.0662678-1.2814704.173149-1.9070912.3171616-.5114879.1141654-1.0232956.2505385-1.6111069.4288752-.4847676.1471394-.8497912.2647514-1.1156086.3591608l-.5662787.199514.0988895.4177891,1.0399572-.1540682c.204385-.0305578.4382558-.0655927.6950124-.0988865.9452341-.1176475,2.1833195-.2477669,3.4199867-.2463812.3432068.0069288.6256533.0284614.8900493.0680089.2554064.0347151.5024627.0801609.755062.1273479l.0777447.0138931c.2231075.0412886.4823158.0919577.7085502.1568397.187362.0589837.381333.1269925.538528.2269095.1443679.076359.2512491.1842707.3424961.2817714.0926328.1183227.1655096.2363255.2213664.3588055.032974.0579532.0524102.1141654.0773894.1904888.0117967.0361008.0232381.0683642.0305578.0822573l.0843182.2217217.3598359.0166647.0967901-.3164865c.0218524-.0718108.0583086-.1925852.0596943-.3410748,0-.0135378.0010304-.0270756.0017411-.0406135l.0024195-.0430297c.004154-.0627856.0083113-.1325356.0003553-.2158234l-.012866-.0839629c-.0103754-.0791305-.0242686-.167606-.0506336-.2682336-.1016935-.3175169-.247053-.5777557-.4278448-.7693105-.1953567-.2321327-.4580473-.430261-.8026043-.6061816-.279675-.1429821-.5999634-.246701-.9823623-.3171616-.3299856-.0503138-.6741904-.0652374-1.0229402-.0461565Z" fill="#c07a51" stroke-width="0"/><path d="M48.7082475,18.1582646c.1953567.0045126.4479561.0006751.739111-.0045126l.4267758-.006609c.4958537-.0086699,1.034737-.0138576,1.6052085.0058984.496209.022563,1.1405878.0693946,1.7166024.2304272l.4108279.1398197c.13637.0562121.2543373.1072366.3865531.1752455.2220771.1092974.4333878.2290059.6141763.3327603l.1228353.0701053c.1665756.0905719.3254761.1856209.4774834.2772588l.0551462.0332938c.0461596.0284614.091641.0558568.1284138.0760037l.1085868.0731966c.1648376.1092974.3206437.2127321.4590777.3254761.1471394.1100081.2945985.2338738.4490221.3772112.1558093.1492003.2581779.2536298.3365978.3431712.0568873.0572426.1013027.1103279.1502307.1679258.0194362.0243041.0378419.0461565.0589837.0708159l.1596468.1828494.3383033-.1218048-.0131825-.2560815c-.0045126-.0975007-.0142129-.2286505-.0506691-.3733737-.0277507-.1589006-.0849933-.3400444-.1811438-.5732076-.112069-.25331-.2345489-.4705547-.3726599-.6610435-.1384371-.206123-.3278955-.41985-.5992559-.6745458-.2668478-.2377113-.5295028-.4250733-.80399-.5732431-.3095221-.1648345-.6329019-.2928575-.9577029-.3803025-.1318605-.0402581-.2994665-.0829325-.5142594-.1315052l-.2349042-.0478976c-.0558568-.0114414-.1033991-.0190809-.1492003-.0267203l-.1231906-.0204666c-.616628-.0957596-1.2710625-.1041097-2.0004346-.026365-.6183336.059339-1.1652117.1592559-1.6471722.2474116l-1.7256276.3053293.0291365.4282001.600674.0152789Z" fill="#c07a51" stroke-width="0"/><path d="M41.786372,21.885002c-.6964337.0426743-1.3123155.1224799-1.7346173.2248486-.2387417.0589837-.3872669.0985312-.4854427.138434l-.312649.1151958.1210942.4230124.3310192-.0749732c.0975362-.0239133.2425792-.0412886.43687-.063141.2782892-.026365.8615879-.064882,1.6472077-.0222077.3317298.0163093.6825405.0465118,1.1096747.0957596.3702469.0454814.7897771.0968256,1.2172694.1714435.9778497.171408,1.8231254.3823634,2.5827001.6450539.4757068.1668954.8761562.332405,1.22384.505554.4691333.2415133.8067615.4327127,1.0982332.6225264.3483945.2050571.6565309.4431237.9077444.6450539l.0534406.0485727c.1210942.1075919.220336.1981638.3143901.3122937.0905364.0871253.16654.1877528.2373204.2841876l.0513797.0680444c.0416084.0548264.0763234.1141298.1110385.1727937l.0176951.0298472c.0329385.058273.0666231.1151958.0874451.1425912l.1589006.3580948.1051402.3470087c.015954.0690393.0284614.1360178.0399028.2012551l.022563.1210942c.0267203.1075919.0326187.2029962.0374866.3105881.0034466.0558568.0069288.1047848.0131855.1342767l.0298472.3039791.3799442.0763234.1165816-.3039791c.0222077-.0572426.0465118-.1283783.0711357-.2036713.0409688-.1054955.0683673-.2151483.0808716-.3206438l.0187255-.1099726c.0155987-.0832878.0308776-.173149.0419992-.2866393l-.0003553-.4635903c-.0131794-.1488449-.0416439-.30604-.0669784-.4455399l-.0666231-.2525993c-.0350349-.1228353-.0791305-.275873-.1471363-.4118908-.3400444-.785229-1.0163343-1.5257227-1.8543287-2.0302463-.3605465-.2234628-.7859396-.4198856-1.3407769-.6183691-.5191273-.1773063-.9795878-.312649-1.4070803-.4132765-1.697486-.4111801-3.6122166-.5860703-5.2486581-.4770926Z" fill="#c07a51" stroke-width="0"/><path d="M37.2015289,24.7650395h-.0003553c-.5652483.1030793-1.0465337.2172447-1.3918014.3303441-.3199331.1030793-.50662.1863315-.5246348.1957121l-.1381142.0666231.1301194.4146623.1724384-.0496387c.1756008-.0458012.3598359-.0770341.4837371-.0954043.4351289-.0652374.8889834-.1079117,1.3487717-.1263174.8171725-.0332938,2.4324367-.0402581,4.0758069.2751624.2959843.0642069.6814746.1537484,1.0375085.279675.3726631.1329264.6821852.2560815.9507741.378597.2671704.1068813.5007216.2303916.7529656.3667647l.1624183.0971454c.0770341.048928.1498754.0950845.2265541.1606772.1020489.0662678.1905244.1488449.2786445.2314576.0471869.0409332.0874451.0870897.1436572.1512611.0308776.0347151.0614354.0683642.0794858.0843182.025299.0322989.047862.0649176.0700698.0971809l.0229184.032974c.0340044.0492478.0672982.0971454.0846735.1138101l.1419161.2609139c.0260097.0496387.0461565.0995971.064882.1471394l.0381617.0902166c.0388724.0825771.0614354.1589361.0791305.226945l.0090252.0308776c.0110861.0371313.0211417.0707804.0294918.0891861l.0829354.2536298.3740459.0111216.0909272-.3751148c.0214971-.0919577.0506336-.2175645.0499585-.3747595l.0041573-.1065259c.0020964-.0652374.0045126-.1366929-.0017382-.2238182l-.0558597-.3917439c-.0381617-.1440125-.0829325-.2866038-.1426268-.4476363-.0183702-.0360653-.0360653-.0749377-.0541157-.1155511-.0482529-.1058153-.1027211-.2255237-.1773063-.3257959-.3768559-.6103744-1.0285188-1.1416182-1.7873828-1.4570387-.339014-.1440125-.7144812-.2505385-1.1811657-.3348567-.4212685-.076359-.8244566-.1304747-1.1975106-.1617076-.403896-.0388724-.8036347-.0610801-1.1859981-.0659125-.3890079-.0100912-.7634121.0051877-1.1451004.0253346-.6367393.0340044-1.2915291.1124243-2.0014651.240092Z" fill="#c07a51" stroke-width="0"/><path d="M57.5160401,35.6280902c.0603662.0680089.0929849.1117492.1006244.1231906l.0808361.1058153.3494249-.1325356-.0114414-.1322158s-.005543-.0711357-.0319404-.2092499l-.0006783-.0024162c-.0406135-.1894584-.1190333-.3796274-.2318129-.5638626-.1436572-.2411579-.3636379-.4778032-.6356734-.6839263-.2762283-.209925-.6169834-.3924546-1.0153008-.5433959-.4361949-.1533575-.8501465-.2512136-1.2669052-.2991112-.2699391-.0298472-.4975947-.0406135-.7130597-.0322634-.1741826.003802-.3400444.0208219-.5111357.0381617l-.2012551.0194362c-.4913411.0558568-.9778142.1408857-1.4313488.2248486-.5236044.102724-.9972859.2092499-1.4476582.3254761-1.0285158.2630103-2.0139724.5867809-2.7572377.8393802-.6076028.2023211-1.1888052.4164034-1.7016788.6058618l-.0315527.0114414c-.2116661.0784199-.4164005.1540682-.6124708.2245288l-2.4268581.8987192.1256068.4271341.1484896-.0409332c.0260452-.0024517,1.0399602-.2491527,2.3637556-.5971919l2.3994598-.6162727c.6880836-.1759206,1.720049-.430261,2.73503-.6072475.4295859-.0773539.8827652-.1398197,1.3869334-.1908441.4882142-.0513442.975398-.0655571,1.3460002-.0721662.4677507-.0131825.8324514-.015954,1.2075338.0111216.3352089.0173398.7206991.0409332,1.0597131.1013027.2904413.043385.5729233.112069.8383498.2037069.2227877.0798056.4146623.1755652.5701162.2838323.1550986.1096528.2571119.2123412.3161343.279675Z" fill="#c07a51" stroke-width="0"/><path d="M55.8105562,38.6524956c-.1738597-.1092974-.4091192-.2519242-.6839263-.3803025-.043385-.022563-.088511-.0444154-.1318605-.0652374-.0867699-.043385-.1766312-.0867344-.2762283-.1315052l-.4302579-.1707328c-.3136825-.1307945-.6575644-.2241379-.9861674-.3098419-.6186889-.1391446-1.2856308-.1936512-1.9310369-.2467365l-.4649791-.0343598c-.307781-.0201113-.6079226-.0381617-.8945619-.0405779-.2487618-.0117967-.4923715-.0058984-.7279834.0003553l-.3542959.0100556c-.1106832.0072841-.2199807.0135378-.3303085.0187255-.2328404.0125074-.4525042.0243041-.6648454.0524102-.2751624.0277508-.5958061.0627856-.8845063.1113583-.2182396.0281416-.4559509.0676891-.7460368.1242566-.2696193.0485727-.4413826.084638-.571502.1197084l-.642993.1550986.0645651.4282001.6613604-.0440601c.1564844-.0128627.3452706-.0215326.5607357-.029172h.0017411c.2855763-.0149236.507298-.0201113.7269559-.0163093.2769034-.0065735.5756593.0045126.8588164.0163093.2081839.0045126.4226571.0197915.6613633.0364562l.6138565.0509889c.2252039.0222077.4562706.0451261.6922408.0770341.258853.0291365.5257008.0728768.7838787.1155511l.2415132.0395475c.0936632.0211773.187362.0406135.2907611.0621105.2244933.0465118.4847676.1023686.7311163.1745348.1370807.0364562.2713573.0739428.4306132.118678.1873975.0520549.3726986.1030793.5545175.1464287.4663649.1162618.9223127.2102803,1.324826.2932128l.4434759.0909272c.1082315.0249792.2144376.0444154.318192.0621105l.2106001.042319c.0693946.0149236.1363731.0295274.1998694.039583l.5673447.0999169c.1818189.0312329.3525518.0551817.5246704.0721662l.124221.0083501.145043-.3258315-.1033991-.0995971c-.1169369-.1037544-.2522795-.2144376-.4008047-.3265066-.1217693-.0975007-.2782892-.2040266-.5065844-.345623Z" fill="#c07a51" stroke-width="0"/><path d="M56.0190954,44.7977766c.0922775.085704.1661847.1790474.2425437.2751979l.0627856.0836076c.0534406.0791305.1003078.1478145.1297996.2057677l.1159065.1998694.3466179-.0277508.060405-.2484421c.0270401-.1166171.038517-.2546957.0346827-.4129212-.006932-.1422715-.0336523-.3643485-.1210974-.6169834-.0929881-.2592084-.2144376-.4948232-.3612217-.6998803-.1662202-.2401275-.3629627-.4628797-.5832956-.6613633-.2154712-.2002247-.4622077-.3747595-.7762424-.5482639-.0718108-.0406135-.138434-.0746179-.2095697-.1079117l-.2168893-.1058508c-.1113583-.0555015-.2238181-.1037544-.3417855-.154388l-.1089421-.0475423c-.3563893-.1485251-.642993-.2626905-.9025567-.3584502-1.1884498-.4431237-2.4133558-.7415242-3.3179734-.9622155l-1.7183079-.4059924-.1315052.4087639.1443323.0659125c.0055786.0024517.5843647.2581779,1.4504682.6086333l.1419131.059339c.8081473.3358871,1.9147306.7960308,2.9727058,1.3116405.2418686.1225155.5215435.2664925.7793692.427525l.0492447.0315527c.1075919.0676891.2092499.1318605.3060786.2029962l.0638129.0461565c.0347151.0232381.0683673.0468316.1020489.0735519l.1765957.1336016c.2252039.171408.442413.3275726.6436682.4628797.1721186.1190333.3716326.2592084.5472334.3969672.1884279.1467841.3164541.2578226.4191749.3639932Z" fill="#c07a51" stroke-width="0"/><path d="M53.8385829,59.1491783l.0024162.1339214.3799472.1023686.0600496-.1394999c.0215002-.0482174.1380786-.3119383.3001416-.7515799.0926328-.2193055.1533575-.469844.2290059-.7980917l.0302025-.1218048c.085704-.3282477.1485251-.7158343.1967425-1.2144595.0548264-.3605466.0565675-.733565.0583086-1.1423289,0-.1040742.0010304-.2113108.0020609-.3171261.0038375-.1891386-.0124718-.3709575-.031908-.5836541l-.008347-.1016935c-.0030945-.0374511-.0065766-.0749377-.0089928-.1124243v-.0017056c-.0211773-.2664925-.0482529-.5513907-.102724-.8300352l-.0288167-.1550986c-.0437048-.2244933-.0877649-.4500525-.1387893-.6801243-.0464763-.1901335-.1020133-.3799472-.1568397-.5642179l-.0787752-.2702944c-.0693946-.2571119-.157195-.5333403-.2689056-.8449233-.0340076-.0947292-.0662709-.1887833-.0978592-.282482-.0634963-.1883924-.1266372-.3723078-.1977698-.548939l-.107595-.273066c-.1776616-.4458952-.361577-.9073891-.571502-1.3342035-.1800748-.4129212-.3879389-.8043454-.571502-1.149613l-.1915193-.3636379c-.0853842-.1568397-.1756008-.3084917-.2658174-.4573366-.047862-.0791305-.0943739-.1578701-.1415608-.2377113l-.0416439-.0714555c-.1221601-.2068337-.237356-.4025102-.3695362-.5853951l-.1062061-.157195c-.2415132-.3570644-.4694887-.6939819-.7075197-.9899663l-.3806578-.5007216-.3900029-.4580117c-.2082195-.2467365-.4042483-.4798997-.5850398-.6509878l-.6679723-.6821852-.3258315.2991112.5909382.7488083c.1339214.1603219.2793196.3664449.4330325.5843647l.3983529.5659234.3268974.5198025c.2054124.3112632.4080533.6790584.587456,1.0038594l.0943739.1689918c.1884279.3414302.36712.7033625.5562231,1.0867919l.2959843.6440235c.158261.3570644.3223848.7262453.4597883,1.1152533.1686364.4146623.3098774.8570753.4465703,1.2849201l.0919577.2897306c.0520549.1662202.0950845.3393693.140175.5208329.023629.096115.0472225.1925852.0728768.2831571l.1009829.3938404.226945,1.2013126c.0228859.1773063.0509889.3518411.0784199.5242795l.0450905.2765837c.0322989.1467485.0506691.2984005.0704606.4569813l.0086699.0687195c.0097003.075293.0190809.1492003.0305223.2164985.0121552.0947292.0263681.1891386.0406135.2835125l.0079592.0520549c.0208219.1304747.0409688.2605941.0545066.3865562l.068684.7019412c.0326218.2151483.0409688.4254286.0485727.6287801.0076395.2085392.0229184.4108248.0381973.608278.0072841.101658.0045126.2002247.0017056.2997863-.0010304.0805163-.0020609.1596468,0,.2328434l.0038406.2953092c.0041542.2300363.0062506.4188196-.009739.587456-.025299.4746764-.025299.7713714-.025299.8053758Z" fill="#c07a51" stroke-width="0"/><path d="M48.2279926,54.0667404c-.0353902.2578226-.0756483.5503247-.1412055.8275835-.0295274.1866869-.0781001.3674754-.1249317.5420102-.0194362.0704251-.038517.1398197-.0516995.1963872l-.0798056.2432543c-.0496387.1502307-.0964703.2932128-.1471394.4233322-.0281031.0624658-.0544711.1256068-.0860593.2012551-.0610445.1467841-.1127796.2682336-.1773063.3841045l-.0416439.081902c-.0707804.1387893-.1440125.2821267-.2321327.4052818l-.0884755.1419161c-.0586639.0936988-.1134873.1818545-.1794027.2557617l-.2352596.307781-.4715851.5090362.2307469.3417855.6558202-.3757899c.1013382-.0728768.2161787-.1613523.3456259-.263721.3039761-.2442848.5864226-.5371422.8383468-.8692274.2914717-.3723078.5600606-.8275835.7991221-1.3546701.2480867-.5718573.4351319-1.1641457.555548-1.7592412.1412055-.686378.2144376-1.3682079.2179198-2.0254139.0076039-.686378-.0478976-1.4088214-.1651898-2.1451579-.0995941-.6790584-.2432543-1.3810351-.4389279-2.1457974-.1624213-.6391556-.3733767-1.3192799-.6454122-2.0802403-.2998218-.7932237-.5524211-1.3893852-.8185938-1.93104-.2612692-.5524211-.5669894-1.1162837-.935815-1.7259474l-.0888308-.1391446c-.1367284-.2123767-.2696193-.4181445-.406703-.6207853l-.1735044-.2421884c-.1085868-.1561646-.2119859-.3015274-.3206082-.4389664-.2765481-.3650236-.5853951-.7359812-.9466168-1.1367503l-.4247179-.4434435c-.0867344-.0839984-.1706973-.162063-.2494725-.2342291l-.0215326-.0197915c-.0371313-.0343598-.0731966-.0676536-.1068457-.0999169-.1579057-.1512967-.2970503-.2661372-.4226571-.3660896l-.0492833-.0406135c-.0291365-.0239133-.0562121-.046121-.0836076-.0697144l-.3282832-.27033-.2921468.339014.2966594.2904413c.0288167.0294918.0624658.0617552.0992418.0975007l.0347151.0333293c.101658.097856.2279783.21927.3605139.3736935l.3234124.3567091.3865562.4684582c.3154205.4049264.5857149.7817823.8272282,1.1540901.0926712.1360178.1786921.2793552.2699775.4327127l.0496002.0811914c.0350704.0586639.0704606.1169369.1041097.1697024.1176475.2060875.2345844.4194947.3525518.6367394l.0964703.1814636c.2602388.5194471.5291475,1.0565894.7619908,1.6388577.2227877.5243151.4309716,1.104487.6738706,1.8796603.2168538.7318239.3803025,1.3852279.4993358,1.9966327.1165816.641252.2296839,1.3307213.2695838,2.0299265.0478976.6388002.0631765,1.3008742.0454814,1.9695216-.0013858.627039-.0579532,1.2398296-.1190333,1.8071743Z" fill="#c07a51" stroke-width="0"/><path d="M42.1247109,42.3254371c.4750317,1.0864365.9660174,2.2096846,1.3595025,3.3863377.2380666.6898247.4243981,1.3348786.5701162,1.971618.1377588.6027349.237356,1.2429565.3036238,1.9567299.0666231.6950124.0551846,1.3553452.0374866,1.8515542-.0333293.6381251-.0929881,1.17978-.1828849,1.6569081-.0985312.565959-.2359347,1.0520768-.3303441,1.3664668-.1429466.4417379-.2616245.7672141-.3750793,1.0284833-.0801609.2075088-.1627381.3771757-.2363255.5281526l-.2380311.4906304.3896831.2185949.285218-.4767373c.0784199-.1287692.1856564-.3053648.2925377-.5226095.1391446-.2508583.2883449-.5742735.4844123-1.0503357.2015749-.5215435.3480392-.9726265.4607861-1.4181664.1343122-.496209.2425763-1.0680663.3310518-1.7506069.0749377-.7554173.1002722-1.3851924.0801609-1.9816736-.0253317-.765473-.0905719-1.4577494-.1998694-2.1159858-.1062061-.6492467-.2664925-1.3661115-.4771252-2.1309094-.351844-1.2592303-.7932266-2.7214923-1.3973473-4.0220111-.5402691-1.1665975-1.2006019-2.2787239-1.9105734-3.2169906-.3577395-.4635903-.6773173-.8373194-.9764284-1.1416182-.2744872-.2817714-.555548-.5382082-.8598824-.7841985-.2994309-.2366809-.4968814-.368186-.6093084-.4365502l-.3529071-.2178843-.2553709.3237351.3174814.3657343c.1009829.1197084.2356149.279675.3893277.4781586.2339093.3067506.4407075.5954508.630841.8810241.2002247.3050095.464659.7169003.7345954,1.1998913.4625599.8001881.9584163,1.8057886,1.5604378,3.1652911l.174215.3969672Z" fill="#c07a51" stroke-width="0"/><path d="M38.3018586,39.0262246c-.2786445-.5277972-.6304857-1.1437147-1.1260195-1.7117345-.1960319-.2231075-.4545651-.4812854-.7099359-.7092609-.249508-.2154681-.5135488-.4167587-.7862949-.5996081-.5239597-.3393693-1.0846954-.6145317-1.667319-.8178832-.5322743-.1783368-1.0590385-.3081008-1.5656255-.3851349-.6617541-.1075919-1.2446975-.1533931-1.7217901-.1908797-.210991-.0163093-.40116-.0311974-.572568-.0488925-.4451846-.0399383-.7321437-.0791305-.8140457-.0916379l-.1814636-.0287812-.1193886.4014798.351166.1578701c.1492003.0666231.3584501.1464287.6232015.2383864.3119383.1068813.7169003.2227877,1.1086442.3345014.3303441.0950845.6936647.1998694,1.0718683.3147099.4351315.1440125.8973335.3019182,1.3449697.5146147.5090362.2376758.9451955.4965643,1.3359445.7935791.2199807.1585808.4226215.3369176.6283893.5208329.1967425.1759206.3612217.3504554.5690858.5711467l.0315527.0336846c.2789999.3084562.6912459.7980917,1.0711958,1.3803244.6325794.9747229,1.1186972,2.0951639,1.4060143,3.2405841.2519242,1.0014432.3535795,2.0750526.2932101,3.105277-.0211773.4070228-.0718108.8272282-.1509413,1.2491746-.0718108.3882973-.156837.7137735-.2231075.9545761-.0746179.2744873-.1426268.4788692-.1870422.6030902l-.1287336.3740488.4115382.1710882.1648318-.3612217c.0888308-.1845905.1773063-.3893277.262655-.6072475.1190333-.2928575.2307825-.6239122.3317298-.9837126.1256068-.4337787.2217573-.8782526.2859287-1.3213763.0839629-.5756593.1221601-1.1010048.1162618-1.606239-.0093805-.6131459-.0663006-1.2172666-.1693443-1.7953421-.2168566-1.2426011-.6610107-2.5223336-1.2845675-3.7000171Z" fill="#c07a51" stroke-width="0"/><path d="M19.4381356,6.6855501c-.295629.4292306-.5489367.896303-.8213298,1.5146367v.0003553c-.1946816.4448292-.3740844.92647-.5652483,1.5160224-.2279732.706134-.4195302,1.3904156-.5961614,2.0306016l-.0471847.1693471c-.0464785.1658649-.0912492.3272172-.1360199.4830265-.430261,1.5198244-.7210576,2.6042-.7234738,2.6173825l-.0419992.1596112.4153374.1422715.0718485-.1783723c.1342745-.3386586.498623-1.260616.9736547-2.5046029l.4722602-1.2241954c.0465118-.1193886.0930236-.2408381.1398552-.3636734l.0433872-.1134547c.1082293-.2859287.2206891-.5815577.3428137-.877542.220336-.5399493.4205607-.976464.630841-1.373751.2720355-.5118432.5354034-.9240538.8053758-1.2596211l.2470563-.3008167.2522795-.2616601c.1651543-.1689562.3511305-.3358871.538528-.4840569.3851705-.3154205.8046651-.5687305,1.1728511-.7908075.442413-.2529547.8296444-.4507276,1.1849677-.6047958.3289583-.145043.6745813-.2710051,1.1152532-.4059924.092313-.0218524.1825296-.0461565.2702944-.0718108.0881557-.0249792.1735044-.0482529.2543759-.0666231l.4829934-.0988865c.3320827-.0565675.5944179-.0930236.8071145-.1117492.1363731-.0184057.2522795-.0249792.3567091-.0294918l.0624658-.0038375c.0416439-.0024162.0787752-.0044771.108267-.0079592l.3320852-.0270756.0652374-.3886171-.3317298-.1190333c-.0256899-.0079948-.0551817-.0173398-.088511-.0302025-.1151958-.0399028-.273066-.0943739-.4680674-.1321803-.039583-.0079948-.0798056-.015954-.1231906-.0260452-.0860593-.0187255-.1790474-.0388368-.2873144-.0562121l-.4819961-.0548264c-.4215911-.0253346-.8067615-.0187255-1.1787116.0208219-.1901714.0229184-.3907159.0530853-.6790963.1033991-.0742626.0197915-.1484896.0388724-.2387038.0590192-.1492358.036776-.3036261.0745824-.4514761.1259266-.4417024.1277032-.9153483.3369531-1.4524906.6419626-.5336956.3358871-.9681494.6780279-1.3237902,1.041346-.0829347.075293-.1589384.1585453-.2324903.2394168l-.1579057.1738242c-.064882.0683642-.140175.1488805-.2067982.2387417l-.2820912.3546482-.2300718.3355318Z" fill="#c07a51" stroke-width="0"/><path d="M31.2370391,11.0917012c-.0971835-.085704-.2082195-.1697024-.3275751-.2470563-.2748426-.1919101-.6180138-.3626074-.9917073-.4937928-.4257839-.1519718-.9004603-.2449599-1.412268-.2772232-.5812378-.0267203-1.1489023.0266848-1.6857248.1575148-.1134523.0243041-.2303916.0614354-.3573842.1023686l-.0961505.0312329c-.1151958.0364206-.1984481.0711357-.2938879.1110385l-.1429466.0589837c-.3112632.1398553-.5874915.2880251-.8438928.4524687-1.0076969.6405769-1.9754554,1.5354586-2.8759157,2.6600924-.1800778.2244933-.3785614.4864731-.5909382.7796859-.1814636.25331-.3528716.5211882-.5392364.8432177-.3490719.6002832-.6547565,1.1947036-.8820568,1.6461418l-1.450785,2.9289655c-.4573366.9136428-.8057289,1.5774578-1.0631984,2.0278656l-.1169369.1956765c-.0860593.1436572-.1540682.2571475-.2147929.3414657l-.220336.328603.3560339.2716802.2439294-.312649c.0832878-.0975007.1818189-.2404473.295629-.4056371l.0971809-.1398197c.1422714-.2151483.3324049-.5072951.5458121-.8574307.1984836-.3296334.4215911-.7102913.6634619-1.1294662l1.6187086-2.8315004.2206913-.3782061c.2279754-.3893277.4639456-.791838.7162252-1.17978.1752099-.2723908.3473285-.5160005.5080057-.7214129.21927-.2567566.4080533-.4729353.6155621-.6936266.932013-.9945144,1.8570996-1.714506,2.7526896-2.140965.1821743-.0930236.3716326-.1728293.5548729-.2498633l.6186889-.232488.0287812-.0089897c.0704606-.0232737.1422714-.0468671.2252039-.0683642.4865087-.1443679.9351778-.2338738,1.3362999-.2658174.3650236-.038517.7425546-.0388368,1.1544454-.0010304.3237376.0340044.6336125.092313.9004603.1693471.1096528.0270401.2085418.0617552.2932128.091247l.036776.0135378c.1009854.0305223.1821743.0641714.2380311.0881202l.3403997.1367284.2311023-.3175169-.2605941-.2734213c-.064882-.0742626-.1554539-.150586-.2258765-.209925Z" fill="#c07a51" stroke-width="0"/><path d="M16.068818,7.0589239c.0256543.2727462.0496031.5305332.0878004.7776251.036776.2560815.079095.5072951.1248961.7456815.0933434.4958537.1884279.87374.2526349,1.1055174l.1668954.5559033.4191749-.0843182-.0541513-.5708269-.0138576-.2154681c-.0180504-.2436097-.0374866-.5315992-.0413241-.868197-.0079592-.4861533.0038375-1.012174.03404-1.5201797.0332938-.4701638.0870897-1.0875025.2123412-1.6915877.0919599-.4590777.274807-.950099.5461674-1.462262.0204666-.0430297.0426743-.0798056.0718464-.128023.0343242-.0551817.0669429-.1089777.0832522-.14785.0173753-.0291365.0694302-.1040742.0999524-.1464287.0239488-.0360653.0503138-.0759681.0836076-.1197084.1214495-.1647989.2578248-.3334709.4053173-.5010414.2345489-.2689442.4833463-.5021074.6998803-.6561755.1637685-.114876.286284-.1686364.3077833-.1776617l.1176453-.0468316v-.3598359l-.2449954-.0728768c-.0624658-.0173398-.2002247-.048928-.3962565-.0395475-.1804332.005543-.378597.0409332-.5739537.1023331-.2272648.071491-.4496972.1703775-.6610079.2932128-.2422239.1408857-.4712298.3116185-.679769.5069753-.055537.0516995-.1162263.1089421-.1741795.1745348-.065948.0732321-.0891861.1002722-.1613523.1884279-.0777447.1089421-.1911995.2737766-.2831571.4504078-.1464287.3050095-.2515689.6374145-.312649.9868394-.05273.2848982-.0919577.5961259-.1238635.9792355-.0260474.2858931-.0381639.5905829-.0381639.9580227-.0017411.2974056.0173398.5881667.0374532.8959477l.0079926.0881557Z" fill="#c07a51" stroke-width="0"/><path d="M2.8979072,3.1285151c.5607357.0204666,1.2432762.0548264,2.0535199.1557737l.0426743.0058984c.4087639.0569228.831421.1155511,1.2783466.2123767.4229769.0849933.8955924.1991587,1.444176.3497803.4712298.1328909.978205.2862485,1.4906878.5072951.5118432.2255592.9861643.4941126,1.4098518.7980917.4587224.328603.8602022.6807995,1.2266471,1.0767362.3383054.3705667.6679367.7640872.9909967,1.1495775l.1013382.1204191c.5576088.6762868,1.2630677,1.557311,1.777649,2.3748388.2505363.3858456.4437988.7460368.5832966,1.0142704.1457536.2997863.2675229.5774004.3605465.8227156.0707804.2022856.1405304.4087639.1706973.5520658l.0943739.3702469.4372253-.092313-.0607248-.3698916c-.0159519-.1321803-.0548264-.3174814-.1307945-.6228462-.0822573-.295629-.1863671-.6034456-.3109079-.9174448-.1280585-.3018827-.3039791-.702332-.5305687-1.1221821-.4417379-.8279388-1.0132378-1.7252723-1.6531061-2.594855-.334146-.4545651-.6648099-.9018461-1.0392496-1.375492-.3851349-.4816052-.8376371-.9417489-1.3081582-1.3307213-.4875391-.403896-1.0066309-.7560925-1.5417123-1.0465337-.561091-.312649-1.1173141-.5583195-1.6523955-.7297275-.5083255-.1665756-1.0465337-.2814161-1.6478829-.3504554-.5593499-.0558924-1.0468535-.0722017-1.4903325-.0513798-.9597993.0353902-1.7214348.2078641-2.1909234.3462981-.2075088.0600496-.4014798.1266728-.5947401.2047373l-.3341816.1398553.0805163.3875867.9431346.0152789Z" fill="#c07a51" stroke-width="0"/><path d="M.2538044,13.5164985c.0450905-.042319.0905719-.0867344.1315052-.1315052l.1641238-.1662202c.0326187-.0298472.0693964-.058273.1086223-.0874451l.0204684-.015954c.0246221-.0190809.0489263-.0381617.071134-.0569228l.2234628-.180753c.032974-.0281061.0728768-.0513798.1141654-.076359l.0239488-.0142129c.0298472-.0173753.058273-.0347151.1065259-.0645622.3331156-.23629.775884-.3993834,1.1912214-.5430406l.3820436-.0895059c.1006276-.0284614.2126965-.0475423.3647038-.0624658.0444154-.0048679.0874451-.0117967.1547433-.0222077.0798056-.0121521.1627381-.0243041.242899-.0288167l.4174338-.0183702c.6881191.0076039,1.2571694.0607248,1.7908649.1675705.4784784.0944094,1.1960893.2491527,1.9039644.5059449.7005554.2546957,1.3140566.5374976,1.877244.8650346.6186889.352232,1.2009572.7471028,1.7318457,1.1756227.5631874.4340985,1.0753504.939688,1.4993598,1.373751.5104198.5628321.8942045,1.0371887,1.2082393,1.4931396l.2567921.3678307.23629.3827187c.141241.2185949.2595637.4445095.3761452.6672616l.031908.0610801c.1117513.2002247.2016104.404962.2953092.6183336l.1235459.2821267.1675705.4392862c.1235459.3147454.2061252.6072475.2789999.8650701l.0613999.2161787c.0541513.1918746.0878025.3667647.1166171.5145792l.009345.048928c.0114769.0600496.0215347.1131349.0319436.1540682l.0870897.4274895.4403522-.0725215-.0527655-.4371898c-.0086699-.0569228-.0163093-.1231906-.0249792-.2099605-.0163072-.1478145-.036776-.3313745-.0784199-.5437157l-.0253346-.1297996c-.0596943-.3063953-.1273479-.6533685-.246701-1.033671l-.1003078-.351166-.1481343-.4156927c-.0773894-.2161787-.1651898-.4611741-.2762262-.696789l-.0298472-.068684c-.1051423-.2408381-.2137291-.4903106-.3494271-.7349507l-.2193055-.4205607-.2442848-.4052818c-.3376282-.5794968-.7751733-1.1461309-1.2005998-1.6753139-.4226236-.485798-.9354973-1.0520768-1.529207-1.5652702-.5475532-.4937928-1.1544454-.9563171-1.8015937-1.373751-.6946946-.469844-1.433767-.8310657-2.0007564-1.0934009-.6482163-.2987558-1.3657917-.5319545-2.1343915-.6929515-.6960783-.1360178-1.4143644-.1735044-2.1329702-.1103279-.6169478.0506336-1.2554283.2102803-1.9067359.479189-.0676891.0361008-.1349873.0690393-.2026409.1020133-.20058.0992418-.3900384.1932603-.5572891.3216742l-.3331138.2311023c-.0760054.0621105-.1467858.1273479-.2161805.1908441l-.0728768.0683642c-.0155987.0155987-.0464763.0562121-.0777092.0985312-.0246594.0340044-.0496387.0693946-.0780645.0999524l-.0305578.0429941c-.124221.1766312-.1755635.249508-.2366453.3910688-.0034822.0079948-.3185473.8383498-.1266372.9723067.0270401.0183702.0999169.05273.1918746-.0347151Z" fill="#c07a51" stroke-width="0"/><path d="M15.3640698,24.8986411c-.0294918-.3299888-.0687195-.634643-.1197084-.9299522-.0496387-.3237351-.1277032-.6925962-.25331-1.1978304-.2786445-1.0357674-.6631043-1.9948561-1.1426487-2.8516117-.5944203-1.0472088-1.3553787-2.0070082-2.1999487-2.7752527-.4694887-.4271697-.9605099-.7970612-1.4601656-1.099619-.6020598-.3542929-1.149613-.5982223-1.6735727-.7450064-.6096637-.1766312-1.2554283-.2155036-1.8158086-.1096528-.6068922.107201-1.1058727.3480392-1.4729927.5458121-.4420932.2401275-.7894218.4865087-1.0417013.674226-.2879895.2095697-.5319545.4108248-.7335294.5774004-.223143.1845905-.4295859.3664094-.6062171.5343707l-.1037544.1041097.1700222.3348212.3462981-.0808361c.119744-.0298472.3189027-.0843182.5853951-.1724384.2894108-.0961505.5815595-.2023211.8668112-.3147454.1099726-.0419992.2237826-.0864146.3410748-.1325356.2307469-.0898968.473646-.1842707.7248951-.2755177.4281646-.1523271.8157868-.2609494,1.1842925-.3317298.4854446-.092313.8917549-.1089777,1.2793415-.0527655.447281.0666231.9240538.2318129,1.3786189.4778388.4563062.2432188.9046176.544071,1.333173.8945264.80399.6520183,1.5437731,1.4875966,2.1395792,2.4164827.5013967.7634121.9212467,1.6322842,1.2474335,2.5806066.1051402.3234153.2370006.7422349.3209635,1.1180248.085704.3584502.1457536.6464397.184626.8827652.0412886.2252039.0662678.4087639.0839629.5433959l.0562121.4066675.4437988-.0426743-.0242686-.463235c-.0073197-.13083-.01702-.3057202-.0388724-.5156452Z" fill="#c07a51" stroke-width="0"/><path d="M11.3798652,28.9852144c-.022563.9854537-.0451261,2.0219317-.048928,2.9116258-.0017411.7613157.0138931,1.5031952.0444154,2.0896208.0225651.3959012.0496031.667617.064882.8067616l.0211773.1440125.3969672.0239133.0405779-.1578701c.0725215-.2897306.3282853-1.3491271.5704716-2.8106429.1238657-.7679247.2761928-1.7960527.3570644-2.9383816.0458012-.6131459.0541157-1.1603438.0270756-1.7224653-.0052212-.0975007-.013218-.1866869-.0215326-.2744873l-.0131804-.1623828c-.0166667-.1419161-.0340065-.2546957-.0534427-.3803025l-.0117967-.0746179c-.0510244-.3240904-.1141654-.6235569-.1925852-.916059-.0440601-.1589361-.0957596-.3150652-.1526824-.4618492-.0260097-.071491-.0610801-.151652-.101658-.2436097l-.1002722-.2054124c-.13083-.265462-.2852535-.5257008-.4719404-.7963506-.3546127-.5152899-.785229-.9667281-1.2439513-1.3043563-.4382558-.3293136-.9563171-.5912935-1.5000684-.7578335-.4732906-.1343122-.9674387-.1957121-1.4608407-.1922299-.7148394.0117967-1.4011819.1530022-2.0986441.4316468-.1912014.0770341-.3737309.1589361-.5423674.2436097l-.3272172.1672507.1721186.407698.3476838-.1283783c.1585808-.0586639.3341816-.1141654.5215435-.1651898.4396415-.1172567,1.1145426-.2643961,1.9008394-.193971.5107753.0419992,1.4965843.2259146,2.3595579.9858445.3525518.3039436.6617186.6828603.918866,1.1263393.1412075.2449599.2515689.4691334.3358871.6804441l.1193531.3435266c.0319436.1172922.059339.2370006.0815467.3567091.0378419.2161787.0614354.4597884.0739072.7647979l.0121521.3959012c0,.0510244.0017411.1047848.0052233.174215.0017076.0822218.003802.1627381.0013858.2411579,0,.3660541-.0100912.7581889-.0205022,1.1374254l-.0110861.45389Z" fill="#c07a51" stroke-width="0"/><path d="M15.7773463,29.6267862c-.2387417.3157758-.4514382.6197549-.6492446.9285664-.8501487,1.2908185-1.4587464,2.6826199-1.8428864,3.61744-.2134072.522574-.3796274.9337541-.4903106,1.2235203-.0902166.2331632-.1561291.3837492-.1766312.4288752l-.0759681.1637685.3754346.2168893.0864146-.1280585c.0121521-.0149236.1189978-.1759206.2779339-.4430882l.657206-1.1312073c.2994665-.5097468.6315516-1.0472444.959444-1.553509.3462981-.522574.7526458-1.1256642,1.1954142-1.6704459.2643961-.3150652.4812854-.5513552.6832156-.7436206.2453507-.2373204.5160005-.4593975.7134181-.6218158.2380666-.1946461.4629152-.3626074.6679723-.4993003.2182751-.1457536.4437988-.2529547.6318714-.3369531.18356-.0718108.3973225-.1509413.5958061-.1918746.1839176-.0458012.3539375-.0600496.4805748-.0673338.1107187-.0062182.2220771-.0048324.3303441.0017411l.2543404.0163093.1488805-.3334709-.2102803-.1765957c-.1072366-.0881557-.2331987-.1662202-.3716326-.2311023-.1887833-.0936988-.4136318-.1644792-.6530487-.2054124-.3119383-.0461565-.5975117-.0496387-.8695827-.010411-.328603.0405779-.6623937.1349518-.9923824.2807054-.329669.1453983-.6405768.3462981-.9497436.6145317-.2539851.2179198-.5007216.4885695-.7765591.8518521Z" fill="#c07a51" stroke-width="0"/><path d="M17.5019079,26.5500061l.0922775-.1443679c.0045126-.0069288.5403068-.8286139,1.3768778-1.9906988.3931652-.5444264.8796406-1.191932,1.4872435-1.9796127.6475034-.8293246,1.238406-1.534748,1.805753-2.1562439.2911496-.3143545.636384-.6790584.9871924-1.0027934.3494249-.3261868.702332-.6232015,1.0052451-.8761917.357775-.2963041.663815-.5228938.9355307-.6922409.1495556-.0916023.2873144-.1603219.4066675-.2036713l.0541157-.0180504c.0447707-.0152789.0850289-.029172.1367284-.0392277l.2411579-.0496031c.36712-.0558568.6252979-.0711357.8390249-.0510244.2151483.0131825.4177891.0600496.5850398.1349873.1447232.0662678.248442.1533575.3185473.210991l.2071535.2175645.3476838-.1714435-.1047848-.3428159c-.0388724-.0926328-.1301194-.3095221-.3337907-.518772-.190169-.2022856-.4740013-.3823634-.7998327-.5072951-.3518767-.1315052-.7349507-.2019658-1.1391996-.209925-.1072034-.0013858-.2154705-.0010304-.3053317.0010304-.1235435.0031268-.2682336.0204666-.3865562.0468316-.2293612.0496387-.4615294.1287692-.7106466.2418686-.4073782.1866869-.808858.4514383-1.2273222.8095331-.3268974.2807409-.6561732.62043-1.0371887,1.0694521-.3490696.410505-.6551073.7897771-.9358505,1.1593133-.5447817.7078751-1.0923349,1.4841144-1.6738903,2.3727424-.540982.8189136-1.0104706,1.6194215-1.3165106,2.1499903-.7356258,1.2727681-1.1613742,2.1631728-1.1638259,2.1683605l-.0718108.1464643.3803025.2248486Z" fill="#c07a51" stroke-width="0"/><path d="M8.0105475,42.9063196c-.2057677,1.1114158-.4181425,2.0181298-.5583195,2.6170272l-.2935681,1.198541.4292305.1273479.3771757-1.1461309c.2366808-.732499.5038484-1.6694155.7526478-2.6382045.3591233-1.4143644.6079207-2.6264077.7828108-3.8145378.2401275-1.5992747.3535822-3.1101094.3369531-4.4918551-.0294918-1.8550364-.2401275-3.3058214-.663815-4.5657623-.2675229-.7890665-.630841-1.4573585-1.0812488-1.9865415-.4545651-.5249902-.9878679-.9705301-1.5416767-1.2873363-.4639456-.2751979-.9816517-.4889249-1.5427427-.6370947-.501752-.112069-.9139981-.1682811-1.2443422-.1589361-.1408857-.0076395-.2702944.0024517-.3730184.0100556l-.0929881.0062537c-.1131349.005543-.2276201.0194362-.3483945.0419992l-.4229769.0735519.0204666.4080888.4101497.0666231c.1554539.0207864.3969672.0731966.6978213.1512611.5562212.1506215,1.3904138.4629152,2.203429,1.0937562.4722602.3744042.8397.7470673,1.1242429,1.140197.307781.4132765.5787861.9320486.8282941,1.5850973.2442848.6454093.435804,1.3053868.5701162,1.961207.134632.6846369.2262343,1.4060143.2720355,2.1437366.0843182,1.3078385.0496051,2.7627808-.1030793,4.3242491-.1287317,1.2731234-.3150652,2.5792208-.5392031,3.7774065Z" fill="#c07a51" stroke-width="0"/><path d="M5.0367758,44.109693c-.1911995,1.1457755-.4118908,2.3026727-.6381251,3.3467902-.1623827.7574782-.3188671,1.4101716-.4475989,1.9480245l-.3563893,1.4632569.4257821.1297996.3528716-1.0333512c.2050926-.6055064.464301-1.4310291.7300828-2.3248804.2630458-.8914351.6003187-2.0771134.879283-3.3429527.3324405-1.4944898.5427208-2.7475019.6624311-3.9425608.0732302-.7196718.106524-1.4171359.0992399-2.0733115-.0090252-.5791059-.0468316-1.3400663-.2584977-2.0902959-.0444154-.1519718-.0982114-.3299888-.1759561-.5201223l-.0645248-.1512967c-.0374885-.0916023-.0763254-.1832047-.1235478-.2807409-.1391446-.3015274-.2869591-.5780755-.4514382-.8452786-.3421408-.5520658-.7064538-1.0166866-1.0815686-1.3796493-.3310547-.334146-.7110019-.6325821-1.1617295-.9129322-.3782416-.232488-.7214129-.3796274-1.0101131-.4944679-.2821267-.1009829-.517706-.1724739-.6794137-.206123l-.3865562-.0895059-.1440125.376465.3227046.2151483c.0982114.0607248.2273003.1519718.3889724.2668478l.2484776.1832047c.1988052.1544235.4243626.3293136.6599775.561091.2755177.25331.5572535.5662788.8369285.9289217.3105881.4181089.5649285.830355.7772697,1.2599409l.0007106.0013858c.1190333.2303916.2352596.4788337.3466534.7415242.031908.0683642.0634963.1457181.096115.2255237l.0780645.1925852c.0419992.1079117.0891861.2321682.1277051.3529071.1544216.4989805.2640744,1.0826346.3261868,1.7339422.0530834.5999634.0659106,1.2453727.0374492,1.918888-.046121,1.1440344-.1828494,2.4004932-.4174338,3.8412226Z" fill="#c07a51" stroke-width="0"/><path d="M13.681152,39.9596234c.6741904-1.0649039,1.3966338-2.1947255,2.1648783-3.2714617.3695718-.5107773.7706962-1.0437622,1.198541-1.4827286l.2633656-.2695838.4132765-.3893277c.068684-.0694302.150586-.1374391.2290059-.2026764l.0315882-.0267203c.0235935-.0194007.0464763-.038517.064882-.0548264.0405779-.0332938.0801609-.0669429.1231906-.1044295.0721662-.0617552.1412077-.1207389.2199807-.1790474.8813794-.7043929,1.8293465-1.239119,2.745441-1.5472553.3931297-.1478145.781427-.2286861,1.1228572-.2997863l.0985667-.0194362c.3466534-.0545066.6800888-.0895415.9885828-.1037544l.3841377-.0072841c.0475067-.0031268.089153.0003198.128023.0031268l.0336491.0020609c.0419992.0020964.0791305.0038375.1103634.0038375h.0013858l.3848151.0128272.0916023-.3990636-.3660896-.1377588c-.1446876-.0610445-.3539352-.1228353-.7005909-.2060875-.085704-.0190809-.1762404-.0340044-.2727106-.049994l-.048928-.0083146c-.0586639-.0086699-.1176475-.0187255-.1880726-.0308776-.1280585-.0163093-.2626905-.0253346-.4059924-.0350349l-.2067982-.0125074c-.4507631,0-.9400078.0152789-1.4622597.1245764-.6353559.1294087-1.1790716.3039791-1.6607123.5326296-.6547898.2963396-1.2019876.6249426-1.6676744,1.0014432-.1457181.1037544-.2793196.2206913-.4017974.3313745l-.1002744.0902166c-.0936988.0825771-.1908441.1679613-.2845407.2661372l-.3716348.3875867-.3202884.3813685c-.4351289.5357565-.7838432,1.0777667-1.1950588,1.7308154-.7418795,1.2009572-1.4229987,2.4227009-1.9910541,3.459179-.6055064,1.0972028-1.1377807,2.1208537-1.6225483,3.0632778l-1.618391,3.1472406.3813685.2300718,3.7059154-5.929813Z" fill="#c07a51" stroke-width="0"/><path d="M26.5647129,26.9761098c.1270305-.3761453.193971-.716545.2106357-1.0656146.0166647-.1641238.0013858-.4205607-.0222077-.5905829-.0346796-.2210466-.0784199-.4018351-.1366929-.5687305-.1332462-.3903937-.3293136-.7418795-.5666696-1.0160115-.2480867-.2925021-.5701162-.5177061-.932013-.6509523-.3355673-.1231906-.691208-.1648345-1.0295493-.1166171-.3647038.0472225-.646795.1943263-.8206547.3105881-.1991587.138434-.3591253.2952737-.4597528.4489865-.0846712.1159065-.1509413.2366453-.1981283.3605466l-.0829325.2331632.2598835.2220771.2182774-.0985312c.0583062-.0302025.1526801-.0693946.2654597-.1096528.1287336-.0451261.2574673-.075293.3834294-.0891861.1307945-.0152789.2779339-.009345.4351289.0184057.2963396.058273.6127906.2206913.9677585.4972394.1748901.1363731.3195778.3039791.4191749.4864731.0562121.0995971.0957596.2144376.1249317.3057202l.0166291.0728768c.0229207.0936632.039583.1613523.0461565.2904057.0114414.2203715-.0142129.4983054-.0725215.7821377-.0537959.2554064-.1377588.5191273-.2501831.7849092-.0936988.2342291-.2092499.4757424-.3438819.7172556-.1356624.2411579-.2605917.4434435-.3827187.6197194-.1061706.1568397-.2227877.3150652-.36712.4972394-.1162618.1464287-.2189502.2720355-.3050095.3726631-.1724739.1964227-.2765481.3092023-.2828018.3157758l-.1110385.1193531.2897306.3206438.1311854-.0985667s.1248961-.0964347.3428159-.2772232l.1151958-.0999524c.0815467-.0714555.171408-.1502307.263721-.2408026.1738597-.1644792.3258315-.3202884.463235-.4746764.1651898-.1801134.3306994-.3806579.5069753-.6145317.1318605-.1769865.3265066-.4483469.4941126-.755062.1703775-.2998218.3081364-.6055064.409439-.9094855Z" fill="#c07a51" stroke-width="0"/><path d="M26.6910327,29.2086772c.034002-.0211773.159289-.0999524.3372705-.2394168.2318129-.18356.5916488-.5149701.9910322-1.0521123.4046091-.5437157,1.3862583-2.0198353,1.756825-3.9800119.0805163-.437936.1107187-.8619433.0902166-1.2564943-.0083146-.4354842-.0853487-.8771866-.2227522-1.2786664-.174215-.4909857-.4209135-.8730294-.7332096-1.1357199-.3199331-.2779339-.728697-.4552758-1.1481917-.4982699-.3310523-.0437403-.6672972-.010411-.999027.0978205-.2366453.0784199-.4576564.193971-.6564953.3435266-.1658649.1242566-.2755177.2474116-.3476814.335212l-.1592938.2206913.1856564.2876697.2911164-.0406135c.0819044-.0110861.1919101-.0256899.3251563-.0305223.1623827-.0125074.3372729-.0093805.5072951.0076395.171408.0152434.3591277.0586283.5510354.1259266.2126965.0902521.3823634.1866869.5350458.3046897.135698.1013027.3327958.2654265.4767728.5166756.135698.2370006.226945.5145792.2800303.8490806.0506691.3216742.0312329.6728402.0031268,1.0031843-.0628212.6263284-.226945,1.319955-.4875391,2.0621899-.2147905.6089531-.4888893,1.1947036-.7925131,1.6929734-.3393668.5534516-.6408966.8855367-.7904522,1.0340619-.0968232.096115-.1852987.1759206-.2623352.2359347l-.2380311.18356.2442848.3674754.2626574-.1564844Z" fill="#c07a51" stroke-width="0"/><path d="M29.506541,27.6152654c.1589361-.1412055.3244457-.3303441.518772-.5524211l.3098774-.3525518.3042989-.3966119c.2057677-.25331.3959367-.5409442.5989329-.8473395l.0624303-.0944094c.1020489-.1422715.1856564-.2914717.2765862-.4531793l.0551436-.0995616c.0353902-.0638516.071491-.1277032.1100081-.1925852l.0166647-.0298472c.0652374-.1151958.1325356-.2342291.1929406-.3567091l.0756128-.1540682c.1644792-.3348567.3508107-.7144486.4993358-1.0982333.1478145-.3289583.2696193-.6846369.3768559-.997961l.0402226-.1159065c.0267203-.0777092.0534432-.1561291.0850289-.2425437l.1131349-.3844598c.0964347-.3268974.1963898-.6652008.270297-.9948342.1301168-.4785139.2005774-.9493883.2619773-1.3942531.0211773-.2022856.0343624-.4174338.0430297-.6977839l.0010304-.0270756c.0076395-.2092499.0149236-.4070228-.0024162-.6048313l-.032974-.6041207c-.0083146-.1301194-.0273954-.2557262-.0475423-.3872313-.0097003-.0621105-.0187255-.1224799-.0260097-.1832047-.0239488-.1825296-.0548264-.3553233-.0867344-.529183l-.0399383-.1686364c-.0235935-.101658-.046121-.199514-.0714555-.2897306l-.1068812-.3973225c-.0246213-.0863791-.0548238-.1662202-.0832878-.2404473l-.0378064-.1023686c-.1443679-.3823989-.2481223-.6051511-.2574673-.6228818l-.0610775-.1266372-.3674779.0843182-.0128272.1492003c-.0125074.1946816-.0201443.4115355-.0222077.647861.0027741.1606417-.0048679.3508107-.0138931.570436l-.0045126.1457536c-.0051877.0742626-.0062537.1509413-.0072841.2297165l-.0010279.0638516c0,.046121-.0007106.0943739-.0017437.1568397-.0128246.1568397-.0260097.3206082-.0308776.4903106-.0072841.229681-.0270731.4753515-.0465118.7130628l-.1408857,1.5736203c-.0211417.1776617-.0378064.3605466-.0544711.5444264-.0232381.2651067-.0450905.5045591-.0811888.7554173-.0281086.3251208-.0961175.6710991-.1509439.9497437l-.0173398.0922775c-.0173753.0909272-.0347151.1818189-.0482529.2605941-.0315527.1193886-.0621105.2397722-.091247.3591608l-.0138931.0551462c-.0742626.2932128-.1512967.5964812-.2525993.8872778-.1075564.3702469-.2480867.732499-.3716326,1.051757l-.0652374.1655096c-.1561646.3643485-.3254761.7505494-.5069753,1.1086442l-.0555015.1072366c-.1478145.2893753-.3004969.5888418-.4705191.8525627l-.2481223.4122106-.2682336.3855258c-.143977.2071535-.2799948.4028656-.4052818.5499694l-.501752.6263284.3185473.3025933.5753039-.5524211Z" fill="#c07a51" stroke-width="0"/><path d="M29.8327278,30.8603621h.0024162c.1613523-.0138576.3515213-.026365.5430786-.0145683.1235079.0045126.2470538.0072841.3757874.0083501.2560815.003802.5211882.0076039.7828128.046121l.5840094.060405.8761562.1783368c.0562121.0142129.1106832.0319436.1818189.0548264.032974.010411.0669784.0211773.0954398.0291365l.1304392.0419992c.145043.0447707.2880251.0891861.417114.134632.1238683.055537.2487974.1061706.3719524.1564844l.0794858.0326187c.209925.0871253.4084086.1697024.6134657.2689442.1891386.0739072.3778863.1623828.5444619.2408026l.042319.0197915c.134632.063141.2661371.1248961.3886526.1752099l.9025212.4372253c.2758757.1349873.5343707.2609494.7713713.3674754.2779339.1259621.4781586.2071535.6446986.2609494.1811438.0693946.3424961.1033991.4389664.1238657l.3244457.0610801.1370482-.3542929-.2095697-.1828849c-.0229184-.0204666-.0475423-.0412886-.0742626-.0634963-.0645267-.0537604-.1453983-.1228353-.2415132-.2175645l-.6475056-.5971563c-.1502307-.1353426-.3202502-.2883804-.5114524-.4382558l-.1297641-.1020133c-.0881557-.0701053-.1787276-.1415963-.2800303-.2161787l-.4507605-.3084917c-.1273505-.0864146-.2643987-.1630934-.3966145-.2370006l-.1110385-.0624658c-.1495556-.0922775-.312649-.1641238-.4705191-.2335185l-.0950845-.0409332c-.3827187-.174215-.808858-.286284-1.1909016-.3862364l-.8143629-.1613523c-.0732347-.0138576-.1461115-.0277508-.2265923-.0391922l-.5861058-.0621105c-.1315052-.0149236-.2622997-.0294918-.4035407-.0409332l-.6370947-.0125074c-.3056846-.0194362-.6030547.0072841-.9119017.0353902-.118678.0114414-.23629.022563-.3514858.0302025-.2304246.0124718-.4469256.0506336-.608278.0822218l-.5503603.097856c-.2605941.0399028-.4968841.1044295-.755062.178017l-.0818665.022563c-.0628212.0173398-.1245763.0343242-.1925852.0513442-.0995947.0298472-.1978085.0562121-.2956645.0811914l-.0374511.010411c-.1832402.0499585-.3563893.0971454-.5080057.1596112l-1.3165059.4896.1183227.4230124,1.3824184-.3053648c.151652-.0416439.3171616-.0652374.5177416-.0919577.0985336-.0128272.1991587-.0267203.2966594-.0426743.0711357-.0090252.1426292-.0197915.2161812-.0305223l.0634938-.0093805c.2085748-.0326187.4448648-.0693946.6985301-.0746179l.544071-.0340044Z" fill="#c07a51" stroke-width="0"/><path d="M13.1901308,42.9618211c.1832047-.1065259.4122461-.23629.7217682-.3924191.5766897-.2925377,1.5149564-.7266362,2.7121138-1.1343341,1.2318326-.4268144,2.6194767-.7710516,4.0123108-.9959002.6807995-.1106832,1.4341181-.1859762,2.2998633-.2300363.9098408-.0249792,1.6628064-.0027715,2.3703262.068684.7033649.0812269,1.5285298.1946816,2.3213982.4250733.2404828.055537.4795443.1353426.7294077.2186304.1231551.0409332.2463456.0811914.3587699.1158709l.0596943.0222077c.3272172.1214495.6658759.2470563.9879054.3816883.7661481.3279279,1.3712992.6235569,1.9049948.9299522l.4382558.2512491c.0884755.0513442.173149.1085868.275873.1779814.0426743.0302025.0860593.0600496.1294087.0871253l.0343598.0222077c.2605941.1655096.5069753.3216387.7259255.4961735.101658.0794858.2036713.1540682.3039435.2252039.1415963.1013382.2682336.1932959.3848151.2963396l.2241735.1860118c.1322158.1117136.2602388.2182396.383074.3160956.1134903.0947292.216534.1915548.3164865.285218l.0201113.0187611c.0583086.0548264.1155511.1079117.1707328.1578701.0475423.0447707.0957596.0878004.1425939.1294443l.0482503.0433494c.0881202.0781001.1717633.1523271.2439294.2234628.3914241.3994189.6728402.670424.8168172.8071169l.1100081.1003078.3268619-.2491527-.0784199-.1349873-.0010278.0007106c-.0565701-.1075919-.3140374-.5350814-.6124379-1.0031843-.2609468-.3706022-.534726-.7332096-.8164974-1.0819239l-.1214495-.1377588c-.3122936-.3521965-.6662312-.7515799-1.0916598-1.1253089-.2355793-.2328434-.5020718-.4451846-.7765591-.663815-.0447707-.0340044-.0891861-.0690393-.1387893-.1082315-.0916023-.0732321-.1856564-.1464643-.2873144-.2172447l-.447281-.301172c-.3032684-.2186304-.6426377-.4039315-.9417489-.5673447l-.0399028-.0218524c-.2387417-.1453983-.5101021-.2626905-.7279864-.3570644l-.0562121-.0246594c-.0995971-.0437048-.2002247-.0877649-.3098774-.1391446-.433068-.1686364-.80399-.2976899-1.1700796-.4073426l-.18356-.048928c-.3514858-.0954398-.6953677-.1863671-1.0364781-.243965-.7394278-.1540682-1.5670113-.2543404-2.5299374-.3063953-.7554173-.0371313-1.5812597-.0211417-2.5295821.0524102-.9077444.0919577-1.69475.2102803-2.4067824.361577-.9223127.1998694-1.5989548.3771757-2.1926645.5746289-.6433128.2036713-1.2835343.4379004-1.9018679.695723-.583654.2370006-1.1097102.4916964-1.5583414.7120324-.4705546.2404473-.8494693.4493419-1.1576078.6384804-.2439294.1453628-.4795443.2970148-.7217327.4639101l-.3796274.2699746.2411579.3785614.400094-.2418686Z" fill="#c07a51" stroke-width="0"/><path d="M21.532269,56.7188025l-.0007106-.0006751c-.3702469-.2592084-.8310657-.5815577-1.3258533-.8910798-.5704716-.3657343-1.0621679-.6544345-1.5451944-.9073891-.1894584-.1044651-.3924546-.2023211-.5822328-.291827l-.5874915-.2675584c-.192905-.0832523-.3924546-.1696669-.5943848-.2428635-.6068922-.2387417-1.2547532-.4458952-1.9279131-.6173387l-.5045235-.1134547-.508361-.0853487c-.3823968-.0482529-.7283417-.0735875-1.0291939-.075293-.625971,0-1.2477868.0568873-1.9577227.1793672-.6114068.1062061-1.2058272.2575028-1.7672735.4504078-.581913.2050926-1.0715129.4112157-1.4962309.6301659-.7283417.3618968-1.4167806.7977364-2.0469109,1.2949758-.2810963.2220771-.4458952.3695362-.5170309.4358396l-.3004969.2651067.2713249.3528716.3327958-.2404473c.0808361-.0610801.2574673-.1894584.5315992-.3636734.3018827-.1943263.5763344-.3563537.8629737-.5100666.3636379-.1957121.7571229-.378597,1.1707547-.5444619.4122106-.1693116.8845063-.321994,1.4448867-.467037.5430406-.1436572,1.0989459-.2463812,1.6523955-.3053648.6145316-.0655927,1.2276775-.0811914,1.7748754-.0444154.3279279.0166647.6076028.0673338.8758364.1155511l.4385755.1023686.4427705.1311498c.6145295.2012551,1.1901888.4358396,1.712443.6981748.4548849.2206913.9066785.4542098,1.2946204.6558202l3.2739133,1.6909125,1.1880945.5988974c.2609494.1297996.5007216.2432543.7113572.3431712l.2217217.1041097c.5270866.246701.8352229.3712773.8352229.3712773l.1374035.0534406.2096052-.3403997-.1013382-.0954043c-.0069264-.0072841-.9733371-.9174803-2.5903068-2.0695095Z" fill="#c07a51" stroke-width="0"/><path d="M5.1537127,54.2416305l-.3202529.3539375.3160975.3198976.3470069-.3355318c.1984836-.1845905.416048-.3702469.646795-.5506801.5204776-.4014798,1.3966693-.991352,2.6156414-1.5229512,1.1960893-.5264115,2.6132252-.9525152,4.0969842-1.2318348.8494359-.1554539,1.6284467-.2474116,2.3821229-.2807409.2321327-.0107308.4330325-.0145683.6068922-.0128272l.6013513.0243041c.3476817.036776.7588618.0881202,1.1762956.192905.7120324.1596468,1.4570387.4257839,2.2776934.8130153.7959952.3782417,1.5236618.8272282,2.0680905,1.175978.6644878.4299412,1.2838874.861588,1.8408211,1.2825039.4864731.3626074.9799106.7696303,1.5510573,1.2790218.5218633.4795443.906714.8608773,1.2117235,1.2009572.337948.3691809.6200747.7089055.8386696,1.0107882.0707804.0957596.1339569.1884279.1943263.2765481l.2710075.4247179.2244908.4018351.3914241-.1422715-.114876-.4715851c-.0874426-.3042989-.192905-.5891971-.3237326-.8716436-.2182776-.4927268-.7450088-1.4990024-1.8217426-2.7086296-.4233346-.4854427-.9427817-.99622-1.544806-1.5191493-.6298105-.539594-1.2863059-1.0177525-1.950796-1.4206181-.6992052-.4306163-1.4775409-.8164619-2.3130836-1.1471613-.9139981-.3647038-1.7537337-.6114048-2.5653276-.7540316-.3855258-.075293-.8192667-.1231551-1.3689185-.1502307l-.4566238-.0020964-.2061252.0058984c-.1978085.0079948-.4132765.0222077-.657206.043385-.7911629.0707804-1.6100744.2050926-2.5046384.4101497-.7984114.1866869-1.5607576.4129212-2.2662165.6728402-.6929515.2546957-1.3473859.5381727-1.9448976.8424716-1.3682079.6943373-2.2488767,1.4022124-2.6520957,1.7624036-.3043008.27033-.519449.4903106-.6471522.6284248Z" fill="#c07a51" stroke-width="0"/><path d="M9.7472612,50.1241796c.3844598-.237356.8421517-.5083611,1.3546721-.802249.0992398-.0478976.1991567-.097856.3136774-.1554539.4563082-.226945.973659-.4844123,1.5448036-.691246l.1894584-.0749377c.1009829-.042319.2182751-.0905719.3369531-.1266372l.5676645-.1756008c.0562121-.0163093.1127796-.0340044.1689918-.0520549l.0416439-.0128272c.1231927-.038517.2460259-.0766788.3674754-.1075564l.6207853-.1367284c.7515798-.1735044,1.6128124-.2817714,2.6340116-.3306994.1360533-.0083146.2793552-.0058984.4361949-.0024162l.0426743.0013858c.0725215.0024162.1474592.0041573.2047373.0024162.2283308.0093805.4642654-.0065735.7033647.0250148l.3105526.0267203c.3653767.0329385.743263.0669429,1.1186976.1394644.8425071.1235459,1.7672715.3601912,2.8269877.7235093.8157868.2824465,1.6638369.6634597,2.6669856,1.1971197.9861643.5642179,1.7516397,1.0482748,2.4095539,1.5236619.8761562.6263284,1.5489989,1.1451004,2.1170162,1.63367.6228462.5270511,1.2120433,1.0787971,1.7526677,1.6409186.5267313.5315992.9542562,1.0472444,1.3355918,1.5229512.399061.5243151.6874058.9445559.8827626,1.2873719.171408.285218.3164536.575304.4413826.8820546l.1741795.4854427.4170785-.0735519-.068684-.5319545c-.0062537-.1051402-.0326187-.2078286-.0663033-.3310192l-.036776-.1415963c-.0395475-.1863315-.1141654-.3865207-.1863315-.5804917l-.0107663-.0288167c-.1502307-.4170785-.3917413-.9167697-.7401384-1.5313013l-.1221246-.1963872c-.134632-.2175645-.2734213-.4427684-.43687-.6662312l-.3227046-.459433-.3563537-.4493419c-.1606746-.2120214-.3355673-.4111801-.5222542-.6232015l-.0360653-.0409688c-.0801609-.0908917-.1610325-.182494-.2501831-.2876342-.0822573-.0808716-.1624183-.1641238-.2432543-.2484421l-.0520549-.0541513c-.1891031-.1963872-.4038934-.4191749-.6294552-.624232-.5825881-.5728878-1.2835343-1.1464862-2.2075881-1.8074941-.8428269-.5739537-1.72662-1.0864721-2.6284686-1.5247278-.9014907-.4122106-1.8779547-.8355428-2.9092095-1.1377808-1.1398771-.3407551-2.1378381-.5534516-3.0455826-.6495665-.4288752-.0652374-.8674863-.0853842-1.2543978-.1033991l-.2661371-.0125074c-.1665733-.0142129-.3275725-.0100556-.5055895-.0027715-.084638.0034822-.1689562.0062537-.2616245.0062537-.0843182.003802-.1693116.0051877-.2689087.0069288-.1547788.0024162-.3143878.0048679-.4740013.0214971l-1.0819239.1134903-1.020524.1866869c-.162063.0256543-.3199331.0718108-.4458952.1085868l-.0399028.0111216c-.0610801.0173398-.1221246.0343598-.1866869.0506691l-.6353536.1748546c-.138434.0423545-.273066.0919577-.4052818.1408857l-.0412886.0152789c-.0534406.0201113-.1058508.0395475-.160997.0589837l-.577045.2096052c-.1259621.0475067-.2457061.1030438-.3674733.1596112-.048255.0235935-.0964723.0454459-.1440146.0672982l-.034713.0159895c-.6030568.2532745-1.1474831.5617661-1.5843531.8095331l-.0572781.031908c-.0815467.0458012-.1617076.0905719-.2494725.1387893-.5045235.3223848-.9608297.6273944-1.3602131.9101962l-1.235317.9708854.2623352.3674754,1.2866612-.8928209Z" fill="#c07a51" stroke-width="0"/><path d="M39.3605444,57.6404401v-.0007106c-.1759561-.7938989-.4028656-1.5930565-.6738706-2.3751586-.3574197-1.0333512-.7835234-2.0264799-1.2658392-2.9518839-.572568-1.1121264-1.267225-2.1916341-2.0639309-3.208676-.8446035-1.0812488-1.8591936-2.098646-3.0171212-3.0247607-1.2394743-.9542563-2.5663936-1.721115-3.9443018-2.2790792-.775884-.3091668-1.5021648-.5510354-2.2183544-.7383974-.124221-.0343598-.2456705-.0624658-.3685058-.0909272l-.7810717-.1679258c-.3928099-.0655927-.7897771-.1131349-1.1797799-.141241-1.4605209-.1127796-3.0164461-.0419637-4.6240708.2106357-1.4275469.2196609-2.880073.6055064-4.3183506,1.1471613-1.3498377.5229293-2.6052639,1.1575723-3.7312499,1.885914-1.034735.6658759-2.0275083,1.4417598-2.9498229,2.3047691-.3598359.3261513-.6807994.6617186-.9909967.9864841l-.2540206.2737766c-.0711357.0811914-.1415589.1617076-.2116661.2404828l-.0340025.038517c-.238033.2702944-.4625263.5257008-.6631063.7866503l-.1304747.1668954c-.2415132.3081364-.4698085.5992528-.6631043.8848261l-.1130994.1599666c-.1911976.269264-.371988.5232846-.518772.7672141-.0430278.068684-.0850289.1342767-.1263174.1981283l-.0568873.0888308c-.1096528.1710882-.2096052.3289583-.2998218.4781586l-.6853102,1.1981857.3865544.2394168.7279864-1.174912c.071491-.1103634.151652-.2262699.2370006-.3501356l.2647514-.3830741c.1579057-.2422239.3567091-.501752.5489745-.7530011l.0971454-.128023c.1932603-.265462.4212358-.5357565.662749-.8216851l.1481698-.1752455c.2147929-.2605941.4611741-.5208329.6988499-.7713714.0957596-.0992418.190169-.2005445.2789999-.2970148l.167606-.1617076c.3178367-.3112632.646795-.6329019,1.0118186-.9417489.9230233-.8032794,1.9043197-1.5149564,2.9161383-2.1145645,1.1606991-.6895049,2.3769352-1.2610069,3.6139577-1.698552,1.3810706-.4788692,2.7742577-.808858,4.1403714-.9812964,1.5236596-.1988389,2.9907563-.2265897,4.3617334-.0836431.3563537.0378419.7134181.0919577,1.0593609.1603219l.5146147.1259621c.0596612.0166647.1203835.0322634.1918746.0509889l.0340044.0090252c.1061706.0281061.2106357.0558568.3133241.0874451.6367393.1873975,1.3151226.4399968,2.0143278.7498743,1.3005188.5961259,2.5042475,1.3331375,3.5792426,2.1915986.4833818.3716326.966053.7918735,1.5181188,1.3217316.4215911.4170785.8546591.8824099,1.322054,1.4209379.3559958.4274895.7682419.9358505,1.1308493,1.464998.3053675.4202409.6166307.8949173.9518045,1.4501099.5340154.8973335,1.008372,1.8112961,1.4102071,2.7166243.3782061.8470197.6578811,1.5934118.8806688,2.2103597.1755652.5107773.3070704.9476473.4028656,1.2665499l.2581424.8917549.4257839-.0881202-.0943739-.7134181c-.0482529-.3546482-.1436572-.864395-.291827-1.5580216Z" fill="#c07a51" stroke-width="0"/><path d="M1.0910883,7.9798508l.0027715-.001066c.1096528-.0485727.2710051-.1068457.4750672-.180753l.2050589-.0680444c.2314558-.0700698.493791-.1498754.7967041-.2001892.3567091-.0725215.7481332-.1107187,1.1624402-.1141654.4694905.0020609.9288862.047862,1.365081.1363731.463235.0943739.9681139.2376758,1.5000684.4253931.5898722.2123767,1.1048067.4302965,1.5742954.6655561.4944679.2494725,1.0125293.5603804,1.5399712.9247289.4830265.3331156.9705656.7075198,1.4493993,1.1128371.4566615.3834294.9049729.8070814,1.3244676,1.207886.9313379.8969782,1.6329948,1.6620958,2.1468634,2.3401238.4618492.5964812.8619433,1.2325455,1.1888052,1.8893961.1166171.2376758.2057677.4354842.2592083.575304l.1544235.3688611.416048-.1578701-.117612-.3726631c-.039583-.1419517-.109333-.3424961-.2186304-.6305212-.1436572-.3757899-.4767707-1.1478364-1.0961368-2.0954837-.5441066-.8387051-1.2557836-1.7356833-2.0573574-2.5934337-.4170764-.4497327-.8296444-.8904047-1.2894327-1.3349141-.4830265-.4663618-.9729818-.8973335-1.4559727-1.2807629-.5388833-.4288752-1.0757057-.8098884-1.5955062-1.1329484-.6287465-.3910333-1.1922538-.6780279-1.7221474-.8771866-.5950955-.2283308-1.1988608-.3765006-1.7943116-.4396415-.5923239-.0617552-1.1540901-.0499585-1.6672835.0343598-.4334234.0613999-.8647148.1853011-1.3581522.3896831-.4052818.1717633-.7161896.3695362-.9441651.5242795-.2425774.174215-.4233322.3189027-.535792.4285554l-.2789643.2612692.2234628.3362424.3473285-.1412055Z" fill="#c07a51" stroke-width="0"/><path d="M25.3752326,6.8857748c-.3067506.0218524-.6135012.0787752-.9115464.1693116-.0781001.0235935-.1787276.0596943-.2571475.0905719l-.2297165.1061706c-.0364206.0187611-.0725215.0374866-.1089421.0548264l-.0243041.0125074c-.091247.0461565-.1832047.0929881-.2640407.1460734-.4965643.2959843-.9903216.6999158-1.467805,1.2006019-.4320021.4563062-.8331265.949033-1.1922873,1.4636478-.6415717.9035516-1.2411798,1.9695216-1.7814489,3.1684179-.4139872.9091302-.7807519,1.9015127-1.0909491,2.9494677-.3074612,1.0350568-.4625599,1.7949867-.5277972,2.1558531-.0940185.5104575-.134632.8307104-.1339214.8341925l-.0197915.1623828.4344538.0884755.0416084-.1838798c.0666231-.2845429.1481698-.5784663.2047373-.7744982.1512967-.5152899.3667647-1.212754.6943395-2.0406928.3553233-.9077444.7939322-1.8599043,1.2675781-2.753045.5815576-1.0913045,1.2096271-2.0542306,1.8661224-2.8606369.4139872-.4996912.7953201-.8966228,1.1669528-1.2134646.4053173-.3511305.8345478-.6578811,1.2793771-.9143179.0652374-.0416439.1332462-.0766788.20058-.1106832l.3983529-.1873975c.1745348-.0634963.3681505-.1144852.6263284-.1655096.3750817-.0659125.8018936-.0992418,1.304001-.1006276.4399968.0024517.8310301.0187611,1.1631153.048928.2883449.0229184.5857505.0548264.9091302.097856.4313269.0575979.7082304.1079117.774856.1210942l.1658624.0305578.1457181-.3747595-.3150652-.1946816c-.1655096-.0992418-.3618968-.2016104-.5673447-.295629-.2744517-.1266728-.5853596-.246701-.9243711-.3574197-.2928955-.0908917-.7412044-.2210111-1.2530145-.2997863-.5583195-.0909272-1.0722212-.1145207-1.5736203-.0739072Z" fill="#c07a51" stroke-width="0"/><path d="M33.308574,1.7391299l.0003553.0003553c.2550485.1759206.5649259.4073782.9455482.706134.2789999.2262343.6985327.5766897,1.1197658,1.0069862.3234153.3334354.7373669.7866147,1.0715129,1.3421627.0416439.0638516.076717.1277032.1221601.210991.0291365.0534051.0586283.107201.0811914.1436572l.1599665.3514858.0322634.0881557c.1179673.3160956.2338738.6398307.3487498.969855.2182396.6360287.4261037,1.3116405.6356734,2.0646061.2096052.7554173.3695745,1.4900128.4760977,2.1836394.2231075,1.4060143.3029131,2.8946413.23629,4.4242015-.0589837,1.2717376-.2182396,2.5726118-.4729353,3.8655267-.1131349.5479085-.2345844,1.0590411-.3609019,1.5198244-.1110385.4129212-.2265897.7817823-.3282477,1.1072585l-.0149236.0472225c-.1065259.3202529-.1898137.5676645-.2536653.7359456l-.1523271.4198856.4105077.1735044.1880699-.4056371c.0811914-.1714435.1925852-.4302965.3202884-.7294077.1630934-.3952261.3112277-.7841985.4396442-1.1561865.1617049-.4587224.323377-.9746874.4809274-1.5340728.3622548-1.3060619.6110495-2.6420064.739108-3.9706669.1533575-1.5094134.1578701-3.120165.0131825-4.6580398-.0829325-.8612682-.195037-1.6333146-.3428514-2.3606259-.1564844-.769275-.3768204-1.5219208-.6547542-2.2384658l-.2123767-.5222187-.2307442-.4975948-.2581806-.4979501-.0849933-.1339214c-.081902-.1322158-.1561646-.2498633-.2356149-.356034-.400094-.5319545-.8723516-1.0160115-1.4043087-1.4379579-.9046149-.7231185-1.7595965-1.1527043-2.4792683-1.4792465-.3189027-.1339214-.5690858-.2317774-.7436206-.2900859l-.4129212-.1415608-.1759206.3848151.1336016.0853487c.0027715.0017411.3240904.20058.8636514.578111Z" fill="#c07a51" stroke-width="0"/><path d="M47.4194899,19.3057812c-.2189502.0058984-.4253931.0190809-.6290999.0409332l-.0447707.0034822c-.1891031.0166291-.3674398.031908-.5364316.0596588-.378597.0458012-.7290523.1155511-1.0114959.1717633-.2165369.0458012-.4084115.0957952-.5805301.1405304l-.9899662.3015629.1026884.4292306.8130152-.1488805.2769034-.03571c.1446876-.0201468.3025933-.0416439.4733262-.0600496l.0565319-.0051877c.2727462-.0235935.5822683-.0503138.9178001-.0551817.1575503-.0076395.3175169-.0048679.4878944-.0010304l.0645267.0010304c.171408,0,.3580948.0079948.5891971.0246239.2088946.0121521.4181445.0298472.6245873.0534406.2064784.0180504.4122461.0478976.6405768.0822573.376465.0551462.7859396.140175,1.3248229.2740964.3979976.1103634.867131.2477669,1.3293355.4278448.4164034.158261.8404107.351166,1.2595856.5722127.443479.2397722.8522429.4878589,1.1586382.6769975.3025578.1877173.6939819.4344183,1.0357674.6759315.2550511.1860118.5826236.431327.8501465.6804797.1790474.1661847.4365147.4146268.6120799.6592669.1419517.178017.2540206.3678307.3327958.5642179.0680089.167606.0902166.307781.0967901.3928099l.0156342.2980807.3740488.1113583.1325711-.3129688c.0350349-.0680089.047862-.1384695.0634963-.221402l.0076039-.0409332c.0288167-.114876.0298472-.2335185.0284614-.3636379.0013858-.1065615-.0149236-.210991-.0357455-.3442372l-.046121-.204382c-.0288167-.1103279-.065948-.2404828-.1183582-.360511-.1231551-.3220295-.3129688-.6565309-.5624768-.9927733-.220336-.3070704-.5093915-.6221711-.8820546-.9622155-.2987558-.2803856-.6526902-.5437513-1.1495775-.8556896-.4146623-.2442848-.8706131-.4635903-1.355736-.6513076-.4604635-.173149-.9510939-.3532269-1.440374-.4837016-.5222186-.1558093-1.0631984-.2647869-1.4785358-.3424961-.5777557-.0943739-1.0382191-.1502662-1.4473029-.1752455-.2602743-.0183702-.4778388-.0305223-.6908906-.0305223h-.0013858c-.262655-.0079948-.4757424-.0062537-.6679723.0062537Z" fill="#c07a51" stroke-width="0"/><path d="M39.2765459,29.1642618l.0222077.015954c.0992418.0683642.223143.1537129.3116185.2453152.1950014.1894584.3525518.4112157.4545651.6395109.096115.2262699.1568397.4656867.1762759.696789.0260124.2054124.0149236.3941957.0048324.5635072l-.0041573.0565675c-.0176951.1419161-.0350349.2828018-.0551462.3785614l-.0524074.2887002.3639904.1644792.160997-.2567566c.0614354-.088511.1301194-.2168893.2321682-.4348091.0836076-.2081839.1672507-.4413826.2119859-.7359812.0548264-.3806223.0468671-.7217327-.0239133-1.0416658-.0864118-.4139517-.2723908-.8130153-.5364671-1.1527043-.1453983-.1953568-.3015273-.3588055-.4896-.5128737-.0676863-.0583086-.1193886-.0968256-.1697024-.1315052l-.3754346-.2592084c-.3928099-.2474116-.8130152-.4337432-1.247469-.5530963-.4590777-.1304747-.9354952-.1887833-1.3418074-.2286861-.896303-.0805163-1.7651751-.0766788-2.5799314.0131825-.739108.0770341-1.4924289.2155036-2.1780963.4004494-.5669894.1488449-1.0957815.3213189-1.4885914.4843767-.3633181.14785-.5520658.2564368-.5520658.2560815l-.1353426.0756483.1627381.4042513.1669309-.0610445c.1433019-.0492833.3296359-.1013382.5246348-.1464643.4705216-.1110385.9629261-.1974176,1.4629396-.2564013.7106466-.081902,1.4143618-.1211297,2.0868467-.1145207.6519854.0090252,1.5056114.0440601,2.3293574.2387417.3751148.0860593.7383973.209925,1.1072585.3396891.3345014.1218048.6891495.2529547,1.024326.3987083l.2078641.0929881.1172922.0690749c.0388724.0225275.0763234.0433494.1013027.063141Z" fill="#c07a51" stroke-width="0"/><path d="M40.3650789,34.2744505c.0870897.0062537.1835628.0090252.2897306.0090252.1717633,0,.3709575-.0076395.6284248-.0242686.3928099-.0312329.7852645-.0826127,1.1662421-.1533931.4170785-.0735519.8713238-.1755652,1.3498021-.3029131.4750672-.1228353.9664083-.2814161,1.4699014-.4466059.608956-.2001892,1.271027-.4354487,1.8029815-.624232.4316467-.1530377.867131-.3067506,1.3015848-.4555955.5583195-.1866869,1.0614573-.3518767,1.5649504-.4885695.505554-.141241,1.0076613-.2619799,1.5160224-.38414.495143-.1231906.9622155-.2130519,1.3883192-.2911164l.1911995-.0260452c.1561291-.0218524.3039791-.0419637.4538575-.0503138.195709-.0183702.3969641-.0374511.5975441-.0332938.3337907-.0076395.6749011.0142129,1.0361227.0662678.3320852.0558568.5937097.1165816.8067615.1866869.1564844.0412886.2859287.0926683.3893277.1336016.0454458.0180504.0853487.0332938.1207389.0461565l.3202884.1203835.2231107-.3299888-.3081396-.2897306c-.1013027-.0947292-.240092-.2244933-.4281646-.3442372-.2088946-.1561291-.4969196-.3150652-.8598824-.4739658l-.107201-.0419992c-.129089-.0503138-.2894108-.1131349-.4694887-.1558093-.2026409-.0551817-.4122461-.112069-.630841-.1374035-.4070228-.0735519-.8747704-.0947292-1.4740201-.0683642-.5034931.026365-1.0392527.1079117-1.5941255.242899-.5374976.1391446-1.0749596.3164509-1.5968584.5270866-.6023796.2377113-1.1148979.4490221-1.5670468.6461199-.383074.1637685-.7616355.3296334-1.1370701.4937573l-.151652.0662678c-.597867.2619799-1.1624402.5090717-1.7245616.7415597-.4132765.1727937-.8546591.344557-1.3890298.5412995-.4469256.1658649-.8695827.3032684-1.2575247.4091193-.3480392.0995616-.7109664.182494-1.0767007.2463456-.3716326.0586639-.6325821.0895415-.8494714.0999524-.1901335.0173398-.3556431.0149236-.4757068.0138576l-.43687-.0065735-.0284614.4434435.4132765.0503138c.1294087.01702.3063953.0402581.5326296.0444154Z" fill="#c07a51" stroke-width="0"/><path d="M24.5122589,35.9993675c-.2377113-.1839153-.5218989-.3556786-.8494359-.5131935-.3130043-.1322158-.6836065-.2765481-1.1190907-.3130043-.3959012-.0395475-.8060509-.0051877-1.2189721.1051402-.416048.1121045-.8085026.2793552-1.1048423.4126014-.7030071.3257959-1.3452873.7036823-1.9088301,1.1225019-.5236066.3837847-1.0229425.8126599-1.4441782,1.2401849-.3792721.3795919-.6960783.74291-.8904046,1.0215545-.0992418.1366929-.1676039.2529547-.2185949.3431712l-.1318605.2602388.36712.2300718.1655096-.2245288.0218524-.0253346c.0471869-.0541157.1166171-.1339214.2102803-.2244933.1898137-.1856209.5107772-.4757424.9611851-.80399.4514382-.3292781.9702103-.6578811,1.4990379-.9507741.4909857-.2661372,1.1409076-.5971563,1.8120067-.7963506.2869591-.0881202.5999279-.1519718.9295968-.1898137.3313768-.0378064.6169478-.0568873.872674-.058273.2408381,0,.5021074.0374866.7595746.1096528.2571475.0621105.5003663.1540682.7252148.2442848.1905244.0756483.3695718.1682811.5270866.2498278l.1200637.0666231c.1585808.091247.2956645.1700222.410505.2522795.0971454.0600141.1745348.1158709.2370006.160997l.2699746.1925852.2973701-.2394168-.114876-.2415133c-.0371313-.0902166-.1020109-.2092499-.1991587-.3657343-.2644316-.4118908-.5958061-.7703409-.985809-1.0652948Z" fill="#c07a51" stroke-width="0"/></svg>